<?xml version="1.0" encoding="UTF-8"?>
<svg xmlns="http://www.w3.org/2000/svg" width="491" height="491" viewBox="0 0 491 491">
  <rect width="100%" height="100%" fill="white"/>
  <text x="245.66929133858267" y="20" text-anchor="middle" font-family="Arial" font-size="12" fill="#666">
    Make It Cunt - Calibration Card (Markers are 5.0cm x 5.0cm)
  </text>
  <g transform="translate(37.79527559055118,67.79527559055117)">
    <rect x="0.0" y="0.0" width="31.5" height="31.5" fill="black"/>
    <rect x="31.5" y="0.0" width="31.5" height="31.5" fill="black"/>
    <rect x="63.0" y="0.0" width="31.5" height="31.5" fill="black"/>
    <rect x="94.5" y="0.0" width="31.5" height="31.5" fill="black"/>
    <rect x="126.0" y="0.0" width="31.5" height="31.5" fill="black"/>
    <rect x="157.5" y="0.0" width="31.5" height="31.5" fill="black"/>
    <rect x="0.0" y="31.5" width="31.5" height="31.5" fill="black"/>
    <rect x="63.0" y="31.5" width="31.5" height="31.5" fill="black"/>
    <rect x="157.5" y="31.5" width="31.5" height="31.5" fill="black"/>
    <rect x="0.0" y="63.0" width="31.5" height="31.5" fill="black"/>
    <rect x="31.5" y="63.0" width="31.5" height="31.5" fill="black"/>
    <rect x="94.5" y="63.0" width="31.5" height="31.5" fill="black"/>
    <rect x="157.5" y="63.0" width="31.5" height="31.5" fill="black"/>
    <rect x="0.0" y="94.5" width="31.5" height="31.5" fill="black"/>
    <rect x="31.5" y="94.5" width="31.5" height="31.5" fill="black"/>
    <rect x="63.0" y="94.5" width="31.5" height="31.5" fill="black"/>
    <rect x="157.5" y="94.5" width="31.5" height="31.5" fill="black"/>
    <rect x="0.0" y="126.0" width="31.5" height="31.5" fill="black"/>
    <rect x="31.5" y="126.0" width="31.5" height="31.5" fill="black"/>
    <rect x="63.0" y="126.0" width="31.5" height="31.5" fill="black"/>
    <rect x="126.0" y="126.0" width="31.5" height="31.5" fill="black"/>
    <rect x="157.5" y="126.0" width="31.5" height="31.5" fill="black"/>
    <rect x="0.0" y="157.5" width="31.5" height="31.5" fill="black"/>
    <rect x="31.5" y="157.5" width="31.5" height="31.5" fill="black"/>
    <rect x="63.0" y="157.5" width="31.5" height="31.5" fill="black"/>
    <rect x="94.5" y="157.5" width="31.5" height="31.5" fill="black"/>
    <rect x="126.0" y="157.5" width="31.5" height="31.5" fill="black"/>
    <rect x="157.5" y="157.5" width="31.5" height="31.5" fill="black"/>
  </g>
  <g transform="translate(264.56692913385825,67.79527559055117)">
    <rect x="0.0" y="0.0" width="31.5" height="31.5" fill="black"/>
    <rect x="31.5" y="0.0" width="31.5" height="31.5" fill="black"/>
    <rect x="63.0" y="0.0" width="31.5" height="31.5" fill="black"/>
    <rect x="94.5" y="0.0" width="31.5" height="31.5" fill="black"/>
    <rect x="126.0" y="0.0" width="31.5" height="31.5" fill="black"/>
    <rect x="157.5" y="0.0" width="31.5" height="31.5" fill="black"/>
    <rect x="0.0" y="31.5" width="31.5" height="31.5" fill="black"/>
    <rect x="31.5" y="31.5" width="31.5" height="31.5" fill="black"/>
    <rect x="63.0" y="31.5" width="31.5" height="31.5" fill="black"/>
    <rect x="94.5" y="31.5" width="31.5" height="31.5" fill="black"/>
    <rect x="126.0" y="31.5" width="31.5" height="31.5" fill="black"/>
    <rect x="157.5" y="31.5" width="31.5" height="31.5" fill="black"/>
    <rect x="0.0" y="63.0" width="31.5" height="31.5" fill="black"/>
    <rect x="157.5" y="63.0" width="31.5" height="31.5" fill="black"/>
    <rect x="0.0" y="94.5" width="31.5" height="31.5" fill="black"/>
    <rect x="63.0" y="94.5" width="31.5" height="31.5" fill="black"/>
    <rect x="94.5" y="94.5" width="31.5" height="31.5" fill="black"/>
    <rect x="157.5" y="94.5" width="31.5" height="31.5" fill="black"/>
    <rect x="0.0" y="126.0" width="31.5" height="31.5" fill="black"/>
    <rect x="63.0" y="126.0" width="31.5" height="31.5" fill="black"/>
    <rect x="126.0" y="126.0" width="31.5" height="31.5" fill="black"/>
    <rect x="157.5" y="126.0" width="31.5" height="31.5" fill="black"/>
    <rect x="0.0" y="157.5" width="31.5" height="31.5" fill="black"/>
    <rect x="31.5" y="157.5" width="31.5" height="31.5" fill="black"/>
    <rect x="63.0" y="157.5" width="31.5" height="31.5" fill="black"/>
    <rect x="94.5" y="157.5" width="31.5" height="31.5" fill="black"/>
    <rect x="126.0" y="157.5" width="31.5" height="31.5" fill="black"/>
    <rect x="157.5" y="157.5" width="31.5" height="31.5" fill="black"/>
  </g>
  <g transform="translate(37.79527559055118,294.56692913385825)">
    <rect x="0.0" y="0.0" width="31.5" height="31.5" fill="black"/>
    <rect x="31.5" y="0.0" width="31.5" height="31.5" fill="black"/>
    <rect x="63.0" y="0.0" width="31.5" height="31.5" fill="black"/>
    <rect x="94.5" y="0.0" width="31.5" height="31.5" fill="black"/>
    <rect x="126.0" y="0.0" width="31.5" height="31.5" fill="black"/>
    <rect x="157.5" y="0.0" width="31.5" height="31.5" fill="black"/>
    <rect x="0.0" y="31.5" width="31.5" height="31.5" fill="black"/>
    <rect x="31.5" y="31.5" width="31.5" height="31.5" fill="black"/>
    <rect x="63.0" y="31.5" width="31.5" height="31.5" fill="black"/>
    <rect x="157.5" y="31.5" width="31.5" height="31.5" fill="black"/>
    <rect x="0.0" y="63.0" width="31.5" height="31.5" fill="black"/>
    <rect x="31.5" y="63.0" width="31.5" height="31.5" fill="black"/>
    <rect x="63.0" y="63.0" width="31.5" height="31.5" fill="black"/>
    <rect x="157.5" y="63.0" width="31.5" height="31.5" fill="black"/>
    <rect x="0.0" y="94.5" width="31.5" height="31.5" fill="black"/>
    <rect x="31.5" y="94.5" width="31.5" height="31.5" fill="black"/>
    <rect x="63.0" y="94.5" width="31.5" height="31.5" fill="black"/>
    <rect x="126.0" y="94.5" width="31.5" height="31.5" fill="black"/>
    <rect x="157.5" y="94.5" width="31.5" height="31.5" fill="black"/>
    <rect x="0.0" y="126.0" width="31.5" height="31.5" fill="black"/>
    <rect x="94.5" y="126.0" width="31.5" height="31.5" fill="black"/>
    <rect x="157.5" y="126.0" width="31.5" height="31.5" fill="black"/>
    <rect x="0.0" y="157.5" width="31.5" height="31.5" fill="black"/>
    <rect x="31.5" y="157.5" width="31.5" height="31.5" fill="black"/>
    <rect x="63.0" y="157.5" width="31.5" height="31.5" fill="black"/>
    <rect x="94.5" y="157.5" width="31.5" height="31.5" fill="black"/>
    <rect x="126.0" y="157.5" width="31.5" height="31.5" fill="black"/>
    <rect x="157.5" y="157.5" width="31.5" height="31.5" fill="black"/>
  </g>
  <g transform="translate(264.56692913385825,294.56692913385825)">
    <rect x="0.0" y="0.0" width="31.5" height="31.5" fill="black"/>
    <rect x="31.5" y="0.0" width="31.5" height="31.5" fill="black"/>
    <rect x="63.0" y="0.0" width="31.5" height="31.5" fill="black"/>
    <rect x="94.5" y="0.0" width="31.5" height="31.5" fill="black"/>
    <rect x="126.0" y="0.0" width="31.5" height="31.5" fill="black"/>
    <rect x="157.5" y="0.0" width="31.5" height="31.5" fill="black"/>
    <rect x="0.0" y="31.5" width="31.5" height="31.5" fill="black"/>
    <rect x="63.0" y="31.5" width="31.5" height="31.5" fill="black"/>
    <rect x="94.5" y="31.5" width="31.5" height="31.5" fill="black"/>
    <rect x="157.5" y="31.5" width="31.5" height="31.5" fill="black"/>
    <rect x="0.0" y="63.0" width="31.5" height="31.5" fill="black"/>
    <rect x="63.0" y="63.0" width="31.5" height="31.5" fill="black"/>
    <rect x="94.5" y="63.0" width="31.5" height="31.5" fill="black"/>
    <rect x="157.5" y="63.0" width="31.5" height="31.5" fill="black"/>
    <rect x="0.0" y="94.5" width="31.5" height="31.5" fill="black"/>
    <rect x="31.5" y="94.5" width="31.5" height="31.5" fill="black"/>
    <rect x="94.5" y="94.5" width="31.5" height="31.5" fill="black"/>
    <rect x="126.0" y="94.5" width="31.5" height="31.5" fill="black"/>
    <rect x="157.5" y="94.5" width="31.5" height="31.5" fill="black"/>
    <rect x="0.0" y="126.0" width="31.5" height="31.5" fill="black"/>
    <rect x="31.5" y="126.0" width="31.5" height="31.5" fill="black"/>
    <rect x="126.0" y="126.0" width="31.5" height="31.5" fill="black"/>
    <rect x="157.5" y="126.0" width="31.5" height="31.5" fill="black"/>
    <rect x="0.0" y="157.5" width="31.5" height="31.5" fill="black"/>
    <rect x="31.5" y="157.5" width="31.5" height="31.5" fill="black"/>
    <rect x="63.0" y="157.5" width="31.5" height="31.5" fill="black"/>
    <rect x="94.5" y="157.5" width="31.5" height="31.5" fill="black"/>
    <rect x="126.0" y="157.5" width="31.5" height="31.5" fill="black"/>
    <rect x="157.5" y="157.5" width="31.5" height="31.5" fill="black"/>
  </g>
  <text x="245.66929133858267" y="461.33858267716533" text-anchor="middle" font-family="Arial" font-size="10" fill="#666">
    Print at 100% scale. Place next to garment when photographing.
  </text>
  <text x="245.66929133858267" y="476.33858267716533" text-anchor="middle" font-family="Arial" font-size="10" fill="#666">
    Each marker is exactly 5.0cm x 5.0cm
  </text>
</svg>